<mxfile host="app.diagrams.net" agent="Mozilla/5.0 (Macintosh; Intel Mac OS X 10_15_7) AppleWebKit/537.36 (KHTML, like Gecko) Chrome/131.0.0.0 Safari/537.36" version="26.0.14" pages="4">
  <diagram name="Page-1" id="Y1XRx36WoZQGSGLYm_jw">
    <mxGraphModel dx="1416" dy="715" grid="0" gridSize="10" guides="1" tooltips="1" connect="1" arrows="1" fold="1" page="1" pageScale="1" pageWidth="827" pageHeight="1169" math="0" shadow="0">
      <root>
        <mxCell id="0" />
        <mxCell id="1" parent="0" />
        <mxCell id="uKwft441ilcb6tmGappP-7" style="edgeStyle=orthogonalEdgeStyle;rounded=0;orthogonalLoop=1;jettySize=auto;html=1;exitX=0.5;exitY=1;exitDx=0;exitDy=0;entryX=0.5;entryY=0;entryDx=0;entryDy=0;" parent="1" source="uKwft441ilcb6tmGappP-1" target="uKwft441ilcb6tmGappP-3" edge="1">
          <mxGeometry relative="1" as="geometry" />
        </mxCell>
        <mxCell id="uKwft441ilcb6tmGappP-12" style="edgeStyle=orthogonalEdgeStyle;rounded=0;orthogonalLoop=1;jettySize=auto;html=1;exitX=0.5;exitY=1;exitDx=0;exitDy=0;entryX=0.5;entryY=0;entryDx=0;entryDy=0;" parent="1" source="uKwft441ilcb6tmGappP-1" target="uKwft441ilcb6tmGappP-5" edge="1">
          <mxGeometry relative="1" as="geometry" />
        </mxCell>
        <mxCell id="uKwft441ilcb6tmGappP-1" value="Class" style="rounded=1;whiteSpace=wrap;html=1;" parent="1" vertex="1">
          <mxGeometry x="320" y="120" width="80" height="40" as="geometry" />
        </mxCell>
        <mxCell id="uKwft441ilcb6tmGappP-10" style="edgeStyle=orthogonalEdgeStyle;rounded=0;orthogonalLoop=1;jettySize=auto;html=1;exitX=0.5;exitY=1;exitDx=0;exitDy=0;entryX=0.5;entryY=0;entryDx=0;entryDy=0;" parent="1" source="uKwft441ilcb6tmGappP-3" target="uKwft441ilcb6tmGappP-9" edge="1">
          <mxGeometry relative="1" as="geometry" />
        </mxCell>
        <mxCell id="uKwft441ilcb6tmGappP-13" style="edgeStyle=orthogonalEdgeStyle;rounded=0;orthogonalLoop=1;jettySize=auto;html=1;exitX=0.5;exitY=1;exitDx=0;exitDy=0;entryX=0.5;entryY=0;entryDx=0;entryDy=0;" parent="1" source="uKwft441ilcb6tmGappP-3" target="uKwft441ilcb6tmGappP-11" edge="1">
          <mxGeometry relative="1" as="geometry" />
        </mxCell>
        <mxCell id="uKwft441ilcb6tmGappP-3" value="sealed" style="rounded=1;whiteSpace=wrap;html=1;fillColor=#d5e8d4;strokeColor=#82b366;" parent="1" vertex="1">
          <mxGeometry x="200" y="200" width="80" height="40" as="geometry" />
        </mxCell>
        <mxCell id="uKwft441ilcb6tmGappP-5" value="non-sealed" style="rounded=1;whiteSpace=wrap;html=1;fillColor=#f5f5f5;fontColor=#333333;strokeColor=#666666;" parent="1" vertex="1">
          <mxGeometry x="320" y="200" width="80" height="40" as="geometry" />
        </mxCell>
        <mxCell id="uKwft441ilcb6tmGappP-23" style="edgeStyle=orthogonalEdgeStyle;rounded=0;orthogonalLoop=1;jettySize=auto;html=1;exitX=0.5;exitY=1;exitDx=0;exitDy=0;" parent="1" source="uKwft441ilcb6tmGappP-6" target="uKwft441ilcb6tmGappP-22" edge="1">
          <mxGeometry relative="1" as="geometry" />
        </mxCell>
        <mxCell id="uKwft441ilcb6tmGappP-24" style="edgeStyle=orthogonalEdgeStyle;rounded=0;orthogonalLoop=1;jettySize=auto;html=1;exitX=0.5;exitY=1;exitDx=0;exitDy=0;" parent="1" source="uKwft441ilcb6tmGappP-6" target="uKwft441ilcb6tmGappP-21" edge="1">
          <mxGeometry relative="1" as="geometry" />
        </mxCell>
        <mxCell id="uKwft441ilcb6tmGappP-6" value="final" style="rounded=1;whiteSpace=wrap;html=1;fillColor=#d5e8d4;strokeColor=#82b366;" parent="1" vertex="1">
          <mxGeometry x="440" y="200" width="80" height="40" as="geometry" />
        </mxCell>
        <mxCell id="uKwft441ilcb6tmGappP-8" style="edgeStyle=orthogonalEdgeStyle;rounded=0;orthogonalLoop=1;jettySize=auto;html=1;exitX=0.5;exitY=1;exitDx=0;exitDy=0;entryX=0.5;entryY=0;entryDx=0;entryDy=0;" parent="1" source="uKwft441ilcb6tmGappP-1" target="uKwft441ilcb6tmGappP-6" edge="1">
          <mxGeometry relative="1" as="geometry" />
        </mxCell>
        <mxCell id="uKwft441ilcb6tmGappP-15" style="edgeStyle=orthogonalEdgeStyle;rounded=0;orthogonalLoop=1;jettySize=auto;html=1;exitX=0.5;exitY=1;exitDx=0;exitDy=0;entryX=0.5;entryY=0;entryDx=0;entryDy=0;" parent="1" source="uKwft441ilcb6tmGappP-9" target="uKwft441ilcb6tmGappP-14" edge="1">
          <mxGeometry relative="1" as="geometry" />
        </mxCell>
        <mxCell id="uKwft441ilcb6tmGappP-17" style="edgeStyle=orthogonalEdgeStyle;rounded=0;orthogonalLoop=1;jettySize=auto;html=1;exitX=0.5;exitY=1;exitDx=0;exitDy=0;entryX=0.5;entryY=0;entryDx=0;entryDy=0;" parent="1" source="uKwft441ilcb6tmGappP-9" target="uKwft441ilcb6tmGappP-16" edge="1">
          <mxGeometry relative="1" as="geometry" />
        </mxCell>
        <mxCell id="uKwft441ilcb6tmGappP-19" style="edgeStyle=orthogonalEdgeStyle;rounded=0;orthogonalLoop=1;jettySize=auto;html=1;exitX=0.5;exitY=1;exitDx=0;exitDy=0;entryX=0.5;entryY=0;entryDx=0;entryDy=0;" parent="1" source="uKwft441ilcb6tmGappP-9" target="uKwft441ilcb6tmGappP-18" edge="1">
          <mxGeometry relative="1" as="geometry" />
        </mxCell>
        <mxCell id="uKwft441ilcb6tmGappP-9" value="Extend sealed class" style="rounded=1;whiteSpace=wrap;html=1;fillColor=#d5e8d4;strokeColor=#82b366;" parent="1" vertex="1">
          <mxGeometry x="100" y="280" width="100" height="40" as="geometry" />
        </mxCell>
        <mxCell id="uKwft441ilcb6tmGappP-11" value="Class" style="rounded=1;whiteSpace=wrap;html=1;fillColor=#f5f5f5;fontColor=#333333;strokeColor=#666666;" parent="1" vertex="1">
          <mxGeometry x="240" y="280" width="80" height="40" as="geometry" />
        </mxCell>
        <mxCell id="uKwft441ilcb6tmGappP-28" style="edgeStyle=orthogonalEdgeStyle;rounded=0;orthogonalLoop=1;jettySize=auto;html=1;exitX=0.5;exitY=1;exitDx=0;exitDy=0;entryX=0.5;entryY=0;entryDx=0;entryDy=0;" parent="1" source="uKwft441ilcb6tmGappP-14" target="uKwft441ilcb6tmGappP-26" edge="1">
          <mxGeometry relative="1" as="geometry" />
        </mxCell>
        <mxCell id="uKwft441ilcb6tmGappP-14" value="sealed" style="rounded=1;whiteSpace=wrap;html=1;fillColor=#d5e8d4;strokeColor=#82b366;" parent="1" vertex="1">
          <mxGeometry x="30" y="360" width="80" height="40" as="geometry" />
        </mxCell>
        <mxCell id="uKwft441ilcb6tmGappP-29" style="edgeStyle=orthogonalEdgeStyle;rounded=0;orthogonalLoop=1;jettySize=auto;html=1;exitX=0.5;exitY=1;exitDx=0;exitDy=0;entryX=0.5;entryY=0;entryDx=0;entryDy=0;" parent="1" source="uKwft441ilcb6tmGappP-16" target="uKwft441ilcb6tmGappP-27" edge="1">
          <mxGeometry relative="1" as="geometry" />
        </mxCell>
        <mxCell id="uKwft441ilcb6tmGappP-16" value="non-sealed" style="rounded=1;whiteSpace=wrap;html=1;fillColor=#d5e8d4;strokeColor=#82b366;" parent="1" vertex="1">
          <mxGeometry x="150" y="360" width="80" height="40" as="geometry" />
        </mxCell>
        <mxCell id="uKwft441ilcb6tmGappP-18" value="final" style="rounded=1;whiteSpace=wrap;html=1;fillColor=#d5e8d4;strokeColor=#82b366;" parent="1" vertex="1">
          <mxGeometry x="270" y="360" width="80" height="40" as="geometry" />
        </mxCell>
        <mxCell id="uKwft441ilcb6tmGappP-21" value="Class" style="rounded=1;whiteSpace=wrap;html=1;fillColor=#f5f5f5;fontColor=#333333;strokeColor=#666666;" parent="1" vertex="1">
          <mxGeometry x="500" y="280" width="80" height="40" as="geometry" />
        </mxCell>
        <mxCell id="uKwft441ilcb6tmGappP-22" value="Extended class" style="rounded=1;whiteSpace=wrap;html=1;fillColor=#f5f5f5;fontColor=#333333;strokeColor=#666666;" parent="1" vertex="1">
          <mxGeometry x="380" y="280" width="80" height="40" as="geometry" />
        </mxCell>
        <mxCell id="uKwft441ilcb6tmGappP-26" value="Extend sealed class" style="rounded=1;whiteSpace=wrap;html=1;fillColor=#d5e8d4;strokeColor=#82b366;" parent="1" vertex="1">
          <mxGeometry x="20" y="440" width="100" height="40" as="geometry" />
        </mxCell>
        <mxCell id="uKwft441ilcb6tmGappP-27" value="Extend sealed class" style="rounded=1;whiteSpace=wrap;html=1;fillColor=#f5f5f5;strokeColor=#666666;fontColor=#333333;" parent="1" vertex="1">
          <mxGeometry x="140" y="440" width="100" height="40" as="geometry" />
        </mxCell>
      </root>
    </mxGraphModel>
  </diagram>
  <diagram id="vR49B_GmdktZoVyrqmrl" name="JPA - detach merge refresh">
    <mxGraphModel dx="954" dy="529" grid="0" gridSize="10" guides="1" tooltips="1" connect="1" arrows="1" fold="1" page="1" pageScale="1" pageWidth="827" pageHeight="1169" math="0" shadow="0">
      <root>
        <mxCell id="0" />
        <mxCell id="1" parent="0" />
        <mxCell id="8e2gAmPYL23IriSbPiYr-1" value="" style="shape=cylinder3;whiteSpace=wrap;html=1;boundedLbl=1;backgroundOutline=1;size=15;fillColor=#dae8fc;strokeColor=#6c8ebf;" vertex="1" parent="1">
          <mxGeometry x="360" y="100" width="60" height="80" as="geometry" />
        </mxCell>
        <mxCell id="8e2gAmPYL23IriSbPiYr-2" value="EM" style="text;html=1;align=center;verticalAlign=middle;resizable=0;points=[];autosize=1;strokeColor=none;fillColor=none;" vertex="1" parent="1">
          <mxGeometry x="260" y="125" width="40" height="30" as="geometry" />
        </mxCell>
        <mxCell id="8e2gAmPYL23IriSbPiYr-3" style="edgeStyle=orthogonalEdgeStyle;rounded=0;orthogonalLoop=1;jettySize=auto;html=1;entryX=0;entryY=0.5;entryDx=0;entryDy=0;entryPerimeter=0;" edge="1" parent="1" source="8e2gAmPYL23IriSbPiYr-2" target="8e2gAmPYL23IriSbPiYr-1">
          <mxGeometry relative="1" as="geometry" />
        </mxCell>
        <mxCell id="8e2gAmPYL23IriSbPiYr-8" style="edgeStyle=orthogonalEdgeStyle;rounded=0;orthogonalLoop=1;jettySize=auto;html=1;entryX=0.5;entryY=0;entryDx=0;entryDy=0;" edge="1" parent="1" source="8e2gAmPYL23IriSbPiYr-5" target="8e2gAmPYL23IriSbPiYr-7">
          <mxGeometry relative="1" as="geometry" />
        </mxCell>
        <mxCell id="8e2gAmPYL23IriSbPiYr-5" value="Bean &quot;User&quot;" style="text;html=1;align=center;verticalAlign=middle;resizable=0;points=[];autosize=1;strokeColor=none;fillColor=none;" vertex="1" parent="1">
          <mxGeometry x="120" y="170" width="90" height="30" as="geometry" />
        </mxCell>
        <mxCell id="8e2gAmPYL23IriSbPiYr-6" value="" style="endArrow=classic;html=1;rounded=0;exitX=0.933;exitY=0.033;exitDx=0;exitDy=0;exitPerimeter=0;entryX=-0.025;entryY=0.5;entryDx=0;entryDy=0;entryPerimeter=0;" edge="1" parent="1" source="8e2gAmPYL23IriSbPiYr-5" target="8e2gAmPYL23IriSbPiYr-2">
          <mxGeometry width="50" height="50" relative="1" as="geometry">
            <mxPoint x="340" y="300" as="sourcePoint" />
            <mxPoint x="390" y="250" as="targetPoint" />
          </mxGeometry>
        </mxCell>
        <mxCell id="8e2gAmPYL23IriSbPiYr-7" value="Travail sur le Bean User" style="rounded=0;whiteSpace=wrap;html=1;" vertex="1" parent="1">
          <mxGeometry x="105" y="240" width="120" height="60" as="geometry" />
        </mxCell>
        <mxCell id="8e2gAmPYL23IriSbPiYr-11" value="" style="group" vertex="1" connectable="0" parent="1">
          <mxGeometry x="220" y="147" width="20" height="20" as="geometry" />
        </mxCell>
        <mxCell id="8e2gAmPYL23IriSbPiYr-9" value="" style="endArrow=none;html=1;rounded=0;strokeWidth=2;" edge="1" parent="8e2gAmPYL23IriSbPiYr-11">
          <mxGeometry width="50" height="50" relative="1" as="geometry">
            <mxPoint y="20" as="sourcePoint" />
            <mxPoint x="20" as="targetPoint" />
          </mxGeometry>
        </mxCell>
        <mxCell id="8e2gAmPYL23IriSbPiYr-10" value="" style="endArrow=none;html=1;rounded=0;strokeWidth=2;" edge="1" parent="8e2gAmPYL23IriSbPiYr-11">
          <mxGeometry width="50" height="50" relative="1" as="geometry">
            <mxPoint as="sourcePoint" />
            <mxPoint x="20" y="20" as="targetPoint" />
          </mxGeometry>
        </mxCell>
        <mxCell id="8e2gAmPYL23IriSbPiYr-13" style="edgeStyle=orthogonalEdgeStyle;rounded=0;orthogonalLoop=1;jettySize=auto;html=1;" edge="1" parent="1" source="8e2gAmPYL23IriSbPiYr-12">
          <mxGeometry relative="1" as="geometry">
            <mxPoint x="230" y="160" as="targetPoint" />
          </mxGeometry>
        </mxCell>
        <mxCell id="8e2gAmPYL23IriSbPiYr-12" value="em.detach(user)" style="text;html=1;align=center;verticalAlign=middle;resizable=0;points=[];autosize=1;strokeColor=none;fillColor=none;fontStyle=1" vertex="1" parent="1">
          <mxGeometry x="175" y="28" width="110" height="30" as="geometry" />
        </mxCell>
        <mxCell id="8e2gAmPYL23IriSbPiYr-15" value="" style="endArrow=none;html=1;rounded=0;exitX=1;exitY=0;exitDx=0;exitDy=0;" edge="1" parent="1" source="8e2gAmPYL23IriSbPiYr-7">
          <mxGeometry width="50" height="50" relative="1" as="geometry">
            <mxPoint x="370" y="280" as="sourcePoint" />
            <mxPoint x="280" y="200" as="targetPoint" />
          </mxGeometry>
        </mxCell>
        <mxCell id="8e2gAmPYL23IriSbPiYr-16" value="" style="endArrow=classic;html=1;rounded=0;entryX=0.825;entryY=1.033;entryDx=0;entryDy=0;entryPerimeter=0;" edge="1" parent="1" target="8e2gAmPYL23IriSbPiYr-2">
          <mxGeometry width="50" height="50" relative="1" as="geometry">
            <mxPoint x="280" y="200" as="sourcePoint" />
            <mxPoint x="420" y="230" as="targetPoint" />
          </mxGeometry>
        </mxCell>
        <mxCell id="8e2gAmPYL23IriSbPiYr-22" style="edgeStyle=orthogonalEdgeStyle;rounded=0;orthogonalLoop=1;jettySize=auto;html=1;" edge="1" parent="1" source="8e2gAmPYL23IriSbPiYr-17">
          <mxGeometry relative="1" as="geometry">
            <mxPoint x="280" y="210" as="targetPoint" />
          </mxGeometry>
        </mxCell>
        <mxCell id="8e2gAmPYL23IriSbPiYr-17" value="em.merge(user)" style="text;html=1;align=center;verticalAlign=middle;resizable=0;points=[];autosize=1;strokeColor=none;fillColor=none;fontStyle=1" vertex="1" parent="1">
          <mxGeometry x="260" y="255" width="110" height="30" as="geometry" />
        </mxCell>
        <mxCell id="8e2gAmPYL23IriSbPiYr-20" value="" style="group" vertex="1" connectable="0" parent="1">
          <mxGeometry x="330" y="230" width="20" height="20" as="geometry" />
        </mxCell>
        <mxCell id="8e2gAmPYL23IriSbPiYr-18" value="" style="endArrow=none;html=1;rounded=0;strokeWidth=2;strokeColor=#17BF81;" edge="1" parent="8e2gAmPYL23IriSbPiYr-20">
          <mxGeometry width="50" height="50" relative="1" as="geometry">
            <mxPoint x="10" y="20" as="sourcePoint" />
            <mxPoint x="10" as="targetPoint" />
          </mxGeometry>
        </mxCell>
        <mxCell id="8e2gAmPYL23IriSbPiYr-19" value="" style="endArrow=none;html=1;rounded=0;strokeWidth=2;strokeColor=#17BF81;" edge="1" parent="8e2gAmPYL23IriSbPiYr-20">
          <mxGeometry width="50" height="50" relative="1" as="geometry">
            <mxPoint y="10" as="sourcePoint" />
            <mxPoint x="20" y="10" as="targetPoint" />
          </mxGeometry>
        </mxCell>
      </root>
    </mxGraphModel>
  </diagram>
  <diagram id="gzkDYGMgzZcGGWxI1ni9" name="JPA - Cycle de vie">
    <mxGraphModel dx="954" dy="529" grid="0" gridSize="10" guides="1" tooltips="1" connect="1" arrows="1" fold="1" page="1" pageScale="1" pageWidth="827" pageHeight="1169" math="0" shadow="0">
      <root>
        <mxCell id="0" />
        <mxCell id="1" parent="0" />
        <mxCell id="UIW74qAR3s-9zwTkYXc8-4" style="edgeStyle=orthogonalEdgeStyle;rounded=0;orthogonalLoop=1;jettySize=auto;html=1;exitX=1;exitY=0.5;exitDx=0;exitDy=0;entryX=0;entryY=0.5;entryDx=0;entryDy=0;" edge="1" parent="1" source="UIW74qAR3s-9zwTkYXc8-1">
          <mxGeometry relative="1" as="geometry">
            <mxPoint x="360" y="145" as="targetPoint" />
          </mxGeometry>
        </mxCell>
        <mxCell id="UIW74qAR3s-9zwTkYXc8-1" value="NEW" style="text;html=1;align=center;verticalAlign=middle;whiteSpace=wrap;rounded=0;fontStyle=1" vertex="1" parent="1">
          <mxGeometry x="200" y="130" width="60" height="30" as="geometry" />
        </mxCell>
        <mxCell id="UIW74qAR3s-9zwTkYXc8-5" value="em.persist" style="text;html=1;align=center;verticalAlign=middle;resizable=0;points=[];autosize=1;strokeColor=none;fillColor=none;" vertex="1" parent="1">
          <mxGeometry x="270" y="110" width="80" height="30" as="geometry" />
        </mxCell>
        <mxCell id="UIW74qAR3s-9zwTkYXc8-8" style="edgeStyle=orthogonalEdgeStyle;rounded=0;orthogonalLoop=1;jettySize=auto;html=1;exitX=0.5;exitY=1;exitDx=0;exitDy=0;entryX=0.5;entryY=0;entryDx=0;entryDy=0;" edge="1" parent="1" source="UIW74qAR3s-9zwTkYXc8-6" target="UIW74qAR3s-9zwTkYXc8-7">
          <mxGeometry relative="1" as="geometry" />
        </mxCell>
        <mxCell id="UIW74qAR3s-9zwTkYXc8-14" style="edgeStyle=orthogonalEdgeStyle;rounded=0;orthogonalLoop=1;jettySize=auto;html=1;exitX=0.25;exitY=0;exitDx=0;exitDy=0;entryX=0.25;entryY=1;entryDx=0;entryDy=0;" edge="1" parent="1" source="UIW74qAR3s-9zwTkYXc8-6" target="UIW74qAR3s-9zwTkYXc8-10">
          <mxGeometry relative="1" as="geometry" />
        </mxCell>
        <mxCell id="UIW74qAR3s-9zwTkYXc8-6" value="MANAGED" style="text;html=1;align=center;verticalAlign=middle;whiteSpace=wrap;rounded=0;fontStyle=1" vertex="1" parent="1">
          <mxGeometry x="380" y="130" width="60" height="30" as="geometry" />
        </mxCell>
        <mxCell id="UIW74qAR3s-9zwTkYXc8-7" value="REMOVED" style="text;html=1;align=center;verticalAlign=middle;whiteSpace=wrap;rounded=0;fontStyle=1" vertex="1" parent="1">
          <mxGeometry x="380" y="200" width="60" height="30" as="geometry" />
        </mxCell>
        <mxCell id="UIW74qAR3s-9zwTkYXc8-9" value="em.remove" style="text;html=1;align=center;verticalAlign=middle;resizable=0;points=[];autosize=1;strokeColor=none;fillColor=none;" vertex="1" parent="1">
          <mxGeometry x="414" y="170" width="80" height="30" as="geometry" />
        </mxCell>
        <mxCell id="UIW74qAR3s-9zwTkYXc8-15" style="edgeStyle=orthogonalEdgeStyle;rounded=0;orthogonalLoop=1;jettySize=auto;html=1;exitX=0.75;exitY=1;exitDx=0;exitDy=0;entryX=0.75;entryY=0;entryDx=0;entryDy=0;" edge="1" parent="1" source="UIW74qAR3s-9zwTkYXc8-10" target="UIW74qAR3s-9zwTkYXc8-6">
          <mxGeometry relative="1" as="geometry" />
        </mxCell>
        <mxCell id="UIW74qAR3s-9zwTkYXc8-10" value="DETACHED" style="text;html=1;align=center;verticalAlign=middle;whiteSpace=wrap;rounded=0;fontStyle=1" vertex="1" parent="1">
          <mxGeometry x="380" y="40" width="60" height="30" as="geometry" />
        </mxCell>
        <mxCell id="UIW74qAR3s-9zwTkYXc8-13" value="em.detach" style="text;html=1;align=center;verticalAlign=middle;resizable=0;points=[];autosize=1;strokeColor=none;fillColor=none;" vertex="1" parent="1">
          <mxGeometry x="314" y="70" width="80" height="30" as="geometry" />
        </mxCell>
        <mxCell id="UIW74qAR3s-9zwTkYXc8-16" value="em.merge" style="text;html=1;align=center;verticalAlign=middle;resizable=0;points=[];autosize=1;strokeColor=none;fillColor=none;" vertex="1" parent="1">
          <mxGeometry x="427" y="70" width="80" height="30" as="geometry" />
        </mxCell>
        <mxCell id="UIW74qAR3s-9zwTkYXc8-17" style="edgeStyle=orthogonalEdgeStyle;rounded=0;orthogonalLoop=1;jettySize=auto;html=1;exitX=1;exitY=0.25;exitDx=0;exitDy=0;entryX=1;entryY=0.75;entryDx=0;entryDy=0;" edge="1" parent="1" source="UIW74qAR3s-9zwTkYXc8-6" target="UIW74qAR3s-9zwTkYXc8-6">
          <mxGeometry relative="1" as="geometry">
            <Array as="points">
              <mxPoint x="460" y="138" />
              <mxPoint x="460" y="153" />
            </Array>
          </mxGeometry>
        </mxCell>
        <mxCell id="UIW74qAR3s-9zwTkYXc8-18" value="em.refresh" style="text;html=1;align=center;verticalAlign=middle;resizable=0;points=[];autosize=1;strokeColor=none;fillColor=none;" vertex="1" parent="1">
          <mxGeometry x="460" y="130" width="80" height="30" as="geometry" />
        </mxCell>
      </root>
    </mxGraphModel>
  </diagram>
  <diagram id="Z1h8ECX8rQUql1VUIFxh" name="AccountMe">
    <mxGraphModel dx="795" dy="484" grid="1" gridSize="10" guides="1" tooltips="1" connect="1" arrows="1" fold="1" page="1" pageScale="1" pageWidth="827" pageHeight="1169" math="0" shadow="0">
      <root>
        <mxCell id="0" />
        <mxCell id="1" parent="0" />
        <mxCell id="c2e_7k0j0S8OTlrdy8KA-2" value="" style="shape=cylinder3;whiteSpace=wrap;html=1;boundedLbl=1;backgroundOutline=1;size=7;fillColor=#f5f5f5;fontColor=#333333;strokeColor=#666666;" parent="1" vertex="1">
          <mxGeometry x="120" y="40" width="40" height="50" as="geometry" />
        </mxCell>
        <mxCell id="c2e_7k0j0S8OTlrdy8KA-3" value="Trade Republik" style="text;html=1;align=center;verticalAlign=middle;resizable=0;points=[];autosize=1;strokeColor=none;fillColor=none;" parent="1" vertex="1">
          <mxGeometry x="90" y="10" width="100" height="30" as="geometry" />
        </mxCell>
        <mxCell id="c2e_7k0j0S8OTlrdy8KA-4" value="" style="shape=cylinder3;whiteSpace=wrap;html=1;boundedLbl=1;backgroundOutline=1;size=7;fillColor=#f8cecc;strokeColor=#b85450;" parent="1" vertex="1">
          <mxGeometry x="230" y="40" width="40" height="50" as="geometry" />
        </mxCell>
        <mxCell id="c2e_7k0j0S8OTlrdy8KA-5" value="Caisse d&#39;Epargne" style="text;html=1;align=center;verticalAlign=middle;resizable=0;points=[];autosize=1;strokeColor=none;fillColor=none;" parent="1" vertex="1">
          <mxGeometry x="190" y="10" width="120" height="30" as="geometry" />
        </mxCell>
        <mxCell id="c2e_7k0j0S8OTlrdy8KA-7" value="" style="shape=cylinder3;whiteSpace=wrap;html=1;boundedLbl=1;backgroundOutline=1;size=7;fillColor=#dae8fc;strokeColor=#6c8ebf;" parent="1" vertex="1">
          <mxGeometry x="350" y="40" width="40" height="50" as="geometry" />
        </mxCell>
        <mxCell id="c2e_7k0j0S8OTlrdy8KA-8" value="Banque Populaire" style="text;html=1;align=center;verticalAlign=middle;resizable=0;points=[];autosize=1;strokeColor=none;fillColor=none;" parent="1" vertex="1">
          <mxGeometry x="310" y="10" width="120" height="30" as="geometry" />
        </mxCell>
        <mxCell id="c2e_7k0j0S8OTlrdy8KA-9" value="..." style="text;html=1;align=center;verticalAlign=middle;resizable=0;points=[];autosize=1;strokeColor=none;fillColor=none;fontStyle=1" parent="1" vertex="1">
          <mxGeometry x="450" y="10" width="30" height="30" as="geometry" />
        </mxCell>
        <mxCell id="c2e_7k0j0S8OTlrdy8KA-10" value="" style="shape=cylinder3;whiteSpace=wrap;html=1;boundedLbl=1;backgroundOutline=1;size=7;fillColor=#d5e8d4;strokeColor=#82b366;" parent="1" vertex="1">
          <mxGeometry x="530" y="40" width="40" height="50" as="geometry" />
        </mxCell>
        <mxCell id="c2e_7k0j0S8OTlrdy8KA-11" value="Green Got" style="text;html=1;align=center;verticalAlign=middle;resizable=0;points=[];autosize=1;strokeColor=none;fillColor=none;" parent="1" vertex="1">
          <mxGeometry x="510" y="10" width="80" height="30" as="geometry" />
        </mxCell>
        <mxCell id="c2e_7k0j0S8OTlrdy8KA-70" style="edgeStyle=orthogonalEdgeStyle;rounded=0;orthogonalLoop=1;jettySize=auto;html=1;exitX=1;exitY=0.5;exitDx=0;exitDy=0;entryX=0;entryY=0.5;entryDx=0;entryDy=0;" parent="1" source="c2e_7k0j0S8OTlrdy8KA-14" target="c2e_7k0j0S8OTlrdy8KA-40" edge="1">
          <mxGeometry relative="1" as="geometry" />
        </mxCell>
        <mxCell id="c2e_7k0j0S8OTlrdy8KA-14" value="Front" style="rounded=1;whiteSpace=wrap;html=1;" parent="1" vertex="1">
          <mxGeometry x="90" y="300" width="530" height="30" as="geometry" />
        </mxCell>
        <mxCell id="c2e_7k0j0S8OTlrdy8KA-16" value="PDF&lt;div&gt;Format TR&lt;/div&gt;" style="shape=note;whiteSpace=wrap;html=1;backgroundOutline=1;darkOpacity=0.05;size=9;fontSize=10;" parent="1" vertex="1">
          <mxGeometry x="110" y="120" width="60" height="50" as="geometry" />
        </mxCell>
        <mxCell id="c2e_7k0j0S8OTlrdy8KA-17" value="CSV&lt;div&gt;Format CE&lt;/div&gt;" style="shape=note;whiteSpace=wrap;html=1;backgroundOutline=1;darkOpacity=0.05;size=9;fontSize=10;" parent="1" vertex="1">
          <mxGeometry x="220" y="120" width="60" height="50" as="geometry" />
        </mxCell>
        <mxCell id="c2e_7k0j0S8OTlrdy8KA-18" value="CSV&lt;div&gt;Format BPN&lt;/div&gt;" style="shape=note;whiteSpace=wrap;html=1;backgroundOutline=1;darkOpacity=0.05;size=9;fontSize=10;" parent="1" vertex="1">
          <mxGeometry x="340" y="120" width="60" height="50" as="geometry" />
        </mxCell>
        <mxCell id="c2e_7k0j0S8OTlrdy8KA-20" value="&lt;div&gt;CSV&lt;/div&gt;" style="shape=note;whiteSpace=wrap;html=1;backgroundOutline=1;darkOpacity=0.05;size=9;fontSize=10;" parent="1" vertex="1">
          <mxGeometry x="110" y="210" width="60" height="50" as="geometry" />
        </mxCell>
        <mxCell id="c2e_7k0j0S8OTlrdy8KA-21" style="edgeStyle=orthogonalEdgeStyle;rounded=0;orthogonalLoop=1;jettySize=auto;html=1;exitX=0.5;exitY=1;exitDx=0;exitDy=0;exitPerimeter=0;entryX=0.5;entryY=0;entryDx=0;entryDy=0;entryPerimeter=0;" parent="1" source="c2e_7k0j0S8OTlrdy8KA-16" target="c2e_7k0j0S8OTlrdy8KA-20" edge="1">
          <mxGeometry relative="1" as="geometry" />
        </mxCell>
        <mxCell id="c2e_7k0j0S8OTlrdy8KA-23" style="edgeStyle=orthogonalEdgeStyle;rounded=0;orthogonalLoop=1;jettySize=auto;html=1;exitX=0.5;exitY=1;exitDx=0;exitDy=0;exitPerimeter=0;entryX=0.094;entryY=0.05;entryDx=0;entryDy=0;entryPerimeter=0;" parent="1" source="c2e_7k0j0S8OTlrdy8KA-20" target="c2e_7k0j0S8OTlrdy8KA-14" edge="1">
          <mxGeometry relative="1" as="geometry" />
        </mxCell>
        <mxCell id="c2e_7k0j0S8OTlrdy8KA-24" style="edgeStyle=orthogonalEdgeStyle;rounded=0;orthogonalLoop=1;jettySize=auto;html=1;exitX=0.5;exitY=1;exitDx=0;exitDy=0;exitPerimeter=0;entryX=0.302;entryY=0.05;entryDx=0;entryDy=0;entryPerimeter=0;" parent="1" source="c2e_7k0j0S8OTlrdy8KA-17" target="c2e_7k0j0S8OTlrdy8KA-14" edge="1">
          <mxGeometry relative="1" as="geometry" />
        </mxCell>
        <mxCell id="c2e_7k0j0S8OTlrdy8KA-25" style="edgeStyle=orthogonalEdgeStyle;rounded=0;orthogonalLoop=1;jettySize=auto;html=1;exitX=0.5;exitY=1;exitDx=0;exitDy=0;exitPerimeter=0;entryX=0.528;entryY=-0.05;entryDx=0;entryDy=0;entryPerimeter=0;" parent="1" source="c2e_7k0j0S8OTlrdy8KA-18" target="c2e_7k0j0S8OTlrdy8KA-14" edge="1">
          <mxGeometry relative="1" as="geometry" />
        </mxCell>
        <mxCell id="c2e_7k0j0S8OTlrdy8KA-26" value="" style="sketch=0;outlineConnect=0;fontColor=#232F3E;gradientColor=none;fillColor=#232F3D;strokeColor=none;dashed=0;verticalLabelPosition=bottom;verticalAlign=top;align=center;html=1;fontSize=12;fontStyle=0;aspect=fixed;pointerEvents=1;shape=mxgraph.aws4.gear;" parent="1" vertex="1">
          <mxGeometry x="80" y="173" width="30" height="30" as="geometry" />
        </mxCell>
        <mxCell id="c2e_7k0j0S8OTlrdy8KA-27" value="TR&lt;div&gt;Converter&lt;/div&gt;" style="text;html=1;align=center;verticalAlign=middle;resizable=0;points=[];autosize=1;strokeColor=none;fillColor=none;" parent="1" vertex="1">
          <mxGeometry x="10" y="168" width="80" height="40" as="geometry" />
        </mxCell>
        <mxCell id="c2e_7k0j0S8OTlrdy8KA-31" style="edgeStyle=orthogonalEdgeStyle;rounded=0;orthogonalLoop=1;jettySize=auto;html=1;exitX=0.5;exitY=1;exitDx=0;exitDy=0;exitPerimeter=0;entryX=0.5;entryY=0;entryDx=0;entryDy=0;entryPerimeter=0;" parent="1" source="c2e_7k0j0S8OTlrdy8KA-2" target="c2e_7k0j0S8OTlrdy8KA-16" edge="1">
          <mxGeometry relative="1" as="geometry" />
        </mxCell>
        <mxCell id="c2e_7k0j0S8OTlrdy8KA-33" style="edgeStyle=orthogonalEdgeStyle;rounded=0;orthogonalLoop=1;jettySize=auto;html=1;exitX=0.5;exitY=1;exitDx=0;exitDy=0;exitPerimeter=0;entryX=0.5;entryY=0;entryDx=0;entryDy=0;entryPerimeter=0;" parent="1" source="c2e_7k0j0S8OTlrdy8KA-4" target="c2e_7k0j0S8OTlrdy8KA-17" edge="1">
          <mxGeometry relative="1" as="geometry" />
        </mxCell>
        <mxCell id="c2e_7k0j0S8OTlrdy8KA-34" style="edgeStyle=orthogonalEdgeStyle;rounded=0;orthogonalLoop=1;jettySize=auto;html=1;exitX=0.5;exitY=1;exitDx=0;exitDy=0;exitPerimeter=0;entryX=0.5;entryY=0;entryDx=0;entryDy=0;entryPerimeter=0;" parent="1" source="c2e_7k0j0S8OTlrdy8KA-7" target="c2e_7k0j0S8OTlrdy8KA-18" edge="1">
          <mxGeometry relative="1" as="geometry" />
        </mxCell>
        <mxCell id="c2e_7k0j0S8OTlrdy8KA-36" value="XML&lt;div&gt;Format GG&lt;/div&gt;" style="shape=note;whiteSpace=wrap;html=1;backgroundOutline=1;darkOpacity=0.05;size=9;fontSize=10;" parent="1" vertex="1">
          <mxGeometry x="520" y="120" width="60" height="50" as="geometry" />
        </mxCell>
        <mxCell id="c2e_7k0j0S8OTlrdy8KA-37" style="edgeStyle=orthogonalEdgeStyle;rounded=0;orthogonalLoop=1;jettySize=auto;html=1;exitX=0.5;exitY=1;exitDx=0;exitDy=0;exitPerimeter=0;entryX=0.5;entryY=0;entryDx=0;entryDy=0;entryPerimeter=0;" parent="1" source="c2e_7k0j0S8OTlrdy8KA-10" target="c2e_7k0j0S8OTlrdy8KA-36" edge="1">
          <mxGeometry relative="1" as="geometry" />
        </mxCell>
        <mxCell id="c2e_7k0j0S8OTlrdy8KA-57" style="edgeStyle=orthogonalEdgeStyle;rounded=0;orthogonalLoop=1;jettySize=auto;html=1;exitX=0.5;exitY=1;exitDx=0;exitDy=0;entryX=0.5;entryY=0;entryDx=0;entryDy=0;" parent="1" source="c2e_7k0j0S8OTlrdy8KA-40" target="c2e_7k0j0S8OTlrdy8KA-56" edge="1">
          <mxGeometry relative="1" as="geometry" />
        </mxCell>
        <mxCell id="c2e_7k0j0S8OTlrdy8KA-110" style="edgeStyle=orthogonalEdgeStyle;rounded=0;orthogonalLoop=1;jettySize=auto;html=1;exitX=1;exitY=0.5;exitDx=0;exitDy=0;" parent="1" source="c2e_7k0j0S8OTlrdy8KA-40" target="c2e_7k0j0S8OTlrdy8KA-109" edge="1">
          <mxGeometry relative="1" as="geometry" />
        </mxCell>
        <mxCell id="c2e_7k0j0S8OTlrdy8KA-40" value="" style="rounded=1;whiteSpace=wrap;html=1;arcSize=7;" parent="1" vertex="1">
          <mxGeometry x="720" y="110" width="320" height="190" as="geometry" />
        </mxCell>
        <mxCell id="c2e_7k0j0S8OTlrdy8KA-43" value="Front" style="text;html=1;align=center;verticalAlign=middle;resizable=0;points=[];autosize=1;strokeColor=none;fillColor=none;fontStyle=1" parent="1" vertex="1">
          <mxGeometry x="855" y="20" width="50" height="30" as="geometry" />
        </mxCell>
        <mxCell id="c2e_7k0j0S8OTlrdy8KA-47" value="Mapping des transactions d&#39;un CSV :&amp;nbsp;" style="text;html=1;align=center;verticalAlign=middle;resizable=0;points=[];autosize=1;strokeColor=none;fillColor=none;" parent="1" vertex="1">
          <mxGeometry x="770" y="160" width="220" height="30" as="geometry" />
        </mxCell>
        <mxCell id="c2e_7k0j0S8OTlrdy8KA-48" value="Import CSV" style="rounded=1;whiteSpace=wrap;html=1;" parent="1" vertex="1">
          <mxGeometry x="820" y="140" width="120" height="20" as="geometry" />
        </mxCell>
        <mxCell id="c2e_7k0j0S8OTlrdy8KA-49" value="Date *" style="text;html=1;align=left;verticalAlign=middle;resizable=0;points=[];autosize=1;strokeColor=none;fillColor=none;" parent="1" vertex="1">
          <mxGeometry x="732" y="181.5" width="60" height="30" as="geometry" />
        </mxCell>
        <mxCell id="c2e_7k0j0S8OTlrdy8KA-50" value="Montant *" style="text;html=1;align=left;verticalAlign=middle;resizable=0;points=[];autosize=1;strokeColor=none;fillColor=none;" parent="1" vertex="1">
          <mxGeometry x="732" y="198" width="70" height="30" as="geometry" />
        </mxCell>
        <mxCell id="c2e_7k0j0S8OTlrdy8KA-51" value="Information *" style="text;html=1;align=left;verticalAlign=middle;resizable=0;points=[];autosize=1;strokeColor=none;fillColor=none;" parent="1" vertex="1">
          <mxGeometry x="732" y="231" width="90" height="30" as="geometry" />
        </mxCell>
        <mxCell id="c2e_7k0j0S8OTlrdy8KA-52" value="Banque *" style="text;html=1;align=left;verticalAlign=middle;resizable=0;points=[];autosize=1;strokeColor=none;fillColor=none;" parent="1" vertex="1">
          <mxGeometry x="732" y="248" width="70" height="30" as="geometry" />
        </mxCell>
        <mxCell id="c2e_7k0j0S8OTlrdy8KA-146" style="edgeStyle=orthogonalEdgeStyle;rounded=0;orthogonalLoop=1;jettySize=auto;html=1;entryX=0.5;entryY=0;entryDx=0;entryDy=0;" parent="1" source="c2e_7k0j0S8OTlrdy8KA-56" target="c2e_7k0j0S8OTlrdy8KA-144" edge="1">
          <mxGeometry relative="1" as="geometry" />
        </mxCell>
        <mxCell id="c2e_7k0j0S8OTlrdy8KA-56" value="" style="rounded=1;whiteSpace=wrap;html=1;arcSize=7;" parent="1" vertex="1">
          <mxGeometry x="720" y="380" width="320" height="240" as="geometry" />
        </mxCell>
        <mxCell id="c2e_7k0j0S8OTlrdy8KA-59" value="Etape 1" style="text;html=1;align=center;verticalAlign=middle;resizable=0;points=[];autosize=1;strokeColor=none;fillColor=none;" parent="1" vertex="1">
          <mxGeometry x="1060" y="143" width="60" height="30" as="geometry" />
        </mxCell>
        <mxCell id="c2e_7k0j0S8OTlrdy8KA-60" value="Etape 2" style="text;html=1;align=center;verticalAlign=middle;resizable=0;points=[];autosize=1;strokeColor=none;fillColor=none;" parent="1" vertex="1">
          <mxGeometry x="1060" y="470" width="60" height="30" as="geometry" />
        </mxCell>
        <mxCell id="c2e_7k0j0S8OTlrdy8KA-66" value="Importer et mapper son format initial" style="text;html=1;align=left;verticalAlign=middle;resizable=0;points=[];autosize=1;strokeColor=none;fillColor=none;" parent="1" vertex="1">
          <mxGeometry x="720" y="80" width="220" height="30" as="geometry" />
        </mxCell>
        <mxCell id="c2e_7k0j0S8OTlrdy8KA-67" value="Catégoriser ses dépenses, transaction par transaction" style="text;html=1;align=left;verticalAlign=middle;resizable=0;points=[];autosize=1;strokeColor=none;fillColor=none;" parent="1" vertex="1">
          <mxGeometry x="720" y="350" width="310" height="30" as="geometry" />
        </mxCell>
        <mxCell id="c2e_7k0j0S8OTlrdy8KA-68" value="Référence émetteur" style="text;html=1;align=left;verticalAlign=middle;resizable=0;points=[];autosize=1;strokeColor=none;fillColor=none;" parent="1" vertex="1">
          <mxGeometry x="732" y="264.5" width="130" height="30" as="geometry" />
        </mxCell>
        <mxCell id="c2e_7k0j0S8OTlrdy8KA-69" value="Type *" style="text;html=1;align=left;verticalAlign=middle;resizable=0;points=[];autosize=1;strokeColor=none;fillColor=none;" parent="1" vertex="1">
          <mxGeometry x="732" y="215" width="60" height="30" as="geometry" />
        </mxCell>
        <mxCell id="c2e_7k0j0S8OTlrdy8KA-71" value="&lt;div&gt;CSV&lt;/div&gt;" style="shape=note;whiteSpace=wrap;html=1;backgroundOutline=1;darkOpacity=0.05;size=9;fontSize=10;" parent="1" vertex="1">
          <mxGeometry x="520" y="210" width="60" height="50" as="geometry" />
        </mxCell>
        <mxCell id="c2e_7k0j0S8OTlrdy8KA-72" style="edgeStyle=orthogonalEdgeStyle;rounded=0;orthogonalLoop=1;jettySize=auto;html=1;exitX=0.5;exitY=1;exitDx=0;exitDy=0;exitPerimeter=0;entryX=0.5;entryY=0;entryDx=0;entryDy=0;entryPerimeter=0;" parent="1" source="c2e_7k0j0S8OTlrdy8KA-36" target="c2e_7k0j0S8OTlrdy8KA-71" edge="1">
          <mxGeometry relative="1" as="geometry" />
        </mxCell>
        <mxCell id="c2e_7k0j0S8OTlrdy8KA-73" style="edgeStyle=orthogonalEdgeStyle;rounded=0;orthogonalLoop=1;jettySize=auto;html=1;exitX=0.5;exitY=1;exitDx=0;exitDy=0;exitPerimeter=0;entryX=0.867;entryY=0.006;entryDx=0;entryDy=0;entryPerimeter=0;" parent="1" source="c2e_7k0j0S8OTlrdy8KA-71" target="c2e_7k0j0S8OTlrdy8KA-14" edge="1">
          <mxGeometry relative="1" as="geometry" />
        </mxCell>
        <mxCell id="c2e_7k0j0S8OTlrdy8KA-74" value="Parcours de chaque transaction" style="text;html=1;align=center;verticalAlign=middle;resizable=0;points=[];autosize=1;strokeColor=none;fillColor=none;" parent="1" vertex="1">
          <mxGeometry x="785" y="400" width="190" height="30" as="geometry" />
        </mxCell>
        <mxCell id="c2e_7k0j0S8OTlrdy8KA-75" value="Exemple :" style="text;html=1;align=center;verticalAlign=middle;resizable=0;points=[];autosize=1;strokeColor=none;fillColor=none;fontStyle=2" parent="1" vertex="1">
          <mxGeometry x="732" y="420" width="80" height="30" as="geometry" />
        </mxCell>
        <mxCell id="c2e_7k0j0S8OTlrdy8KA-76" value="01/03/2025" style="text;html=1;align=center;verticalAlign=middle;resizable=0;points=[];autosize=1;strokeColor=none;fillColor=none;fontStyle=0" parent="1" vertex="1">
          <mxGeometry x="732" y="450" width="80" height="30" as="geometry" />
        </mxCell>
        <mxCell id="c2e_7k0j0S8OTlrdy8KA-77" value="25,59€" style="text;html=1;align=center;verticalAlign=middle;resizable=0;points=[];autosize=1;strokeColor=none;fillColor=none;fontStyle=0" parent="1" vertex="1">
          <mxGeometry x="812" y="450" width="60" height="30" as="geometry" />
        </mxCell>
        <mxCell id="c2e_7k0j0S8OTlrdy8KA-78" value="crédit" style="text;html=1;align=center;verticalAlign=middle;resizable=0;points=[];autosize=1;strokeColor=none;fillColor=none;fontStyle=0" parent="1" vertex="1">
          <mxGeometry x="877" y="450" width="50" height="30" as="geometry" />
        </mxCell>
        <mxCell id="c2e_7k0j0S8OTlrdy8KA-79" value="Maxime" style="text;html=1;align=center;verticalAlign=middle;resizable=0;points=[];autosize=1;strokeColor=none;fillColor=none;fontStyle=0" parent="1" vertex="1">
          <mxGeometry x="940" y="450" width="70" height="30" as="geometry" />
        </mxCell>
        <mxCell id="c2e_7k0j0S8OTlrdy8KA-82" value="Catégorie" style="rounded=1;whiteSpace=wrap;html=1;" parent="1" vertex="1">
          <mxGeometry x="735" y="500" width="95" height="20" as="geometry" />
        </mxCell>
        <mxCell id="c2e_7k0j0S8OTlrdy8KA-84" value="" style="triangle;whiteSpace=wrap;html=1;rotation=90;fillColor=#000000;" parent="1" vertex="1">
          <mxGeometry x="812" y="505" width="7.5" height="10" as="geometry" />
        </mxCell>
        <mxCell id="c2e_7k0j0S8OTlrdy8KA-86" value="ss catég" style="rounded=1;whiteSpace=wrap;html=1;" parent="1" vertex="1">
          <mxGeometry x="845" y="500" width="95" height="20" as="geometry" />
        </mxCell>
        <mxCell id="c2e_7k0j0S8OTlrdy8KA-87" value="" style="triangle;whiteSpace=wrap;html=1;rotation=90;fillColor=#000000;" parent="1" vertex="1">
          <mxGeometry x="922" y="505" width="7.5" height="10" as="geometry" />
        </mxCell>
        <mxCell id="c2e_7k0j0S8OTlrdy8KA-90" value="" style="ellipse;whiteSpace=wrap;html=1;aspect=fixed;" parent="1" vertex="1">
          <mxGeometry x="817" y="540" width="10" height="10" as="geometry" />
        </mxCell>
        <mxCell id="c2e_7k0j0S8OTlrdy8KA-92" value="" style="group" parent="1" vertex="1" connectable="0">
          <mxGeometry x="780" y="540" width="10" height="10" as="geometry" />
        </mxCell>
        <mxCell id="c2e_7k0j0S8OTlrdy8KA-89" value="" style="ellipse;whiteSpace=wrap;html=1;aspect=fixed;" parent="c2e_7k0j0S8OTlrdy8KA-92" vertex="1">
          <mxGeometry width="10" height="10" as="geometry" />
        </mxCell>
        <mxCell id="c2e_7k0j0S8OTlrdy8KA-91" value="" style="ellipse;whiteSpace=wrap;html=1;aspect=fixed;fillColor=#000000;" parent="c2e_7k0j0S8OTlrdy8KA-92" vertex="1">
          <mxGeometry x="1.25" y="1.25" width="7.5" height="7.5" as="geometry" />
        </mxCell>
        <mxCell id="c2e_7k0j0S8OTlrdy8KA-93" value="vrt interne" style="text;html=1;align=center;verticalAlign=middle;resizable=0;points=[];autosize=1;strokeColor=none;fillColor=none;" parent="1" vertex="1">
          <mxGeometry x="710" y="530" width="80" height="30" as="geometry" />
        </mxCell>
        <mxCell id="c2e_7k0j0S8OTlrdy8KA-94" value="o" style="text;html=1;align=center;verticalAlign=middle;resizable=0;points=[];autosize=1;strokeColor=none;fillColor=none;" parent="1" vertex="1">
          <mxGeometry x="783" y="530" width="30" height="30" as="geometry" />
        </mxCell>
        <mxCell id="c2e_7k0j0S8OTlrdy8KA-95" value="n" style="text;html=1;align=center;verticalAlign=middle;resizable=0;points=[];autosize=1;strokeColor=none;fillColor=none;" parent="1" vertex="1">
          <mxGeometry x="822" y="530" width="30" height="30" as="geometry" />
        </mxCell>
        <mxCell id="c2e_7k0j0S8OTlrdy8KA-103" value="Compte" style="rounded=1;whiteSpace=wrap;html=1;" parent="1" vertex="1">
          <mxGeometry x="855" y="535" width="95" height="20" as="geometry" />
        </mxCell>
        <mxCell id="c2e_7k0j0S8OTlrdy8KA-104" value="" style="triangle;whiteSpace=wrap;html=1;rotation=90;fillColor=#000000;" parent="1" vertex="1">
          <mxGeometry x="932" y="540" width="7.5" height="10" as="geometry" />
        </mxCell>
        <mxCell id="c2e_7k0j0S8OTlrdy8KA-107" value="Opération suivante" style="rounded=1;whiteSpace=wrap;html=1;" parent="1" vertex="1">
          <mxGeometry x="905" y="590" width="120" height="20" as="geometry" />
        </mxCell>
        <mxCell id="c2e_7k0j0S8OTlrdy8KA-108" value="25/86" style="text;html=1;align=center;verticalAlign=middle;resizable=0;points=[];autosize=1;strokeColor=none;fillColor=none;" parent="1" vertex="1">
          <mxGeometry x="850" y="585" width="50" height="30" as="geometry" />
        </mxCell>
        <mxCell id="c2e_7k0j0S8OTlrdy8KA-109" value="" style="shape=cylinder3;whiteSpace=wrap;html=1;boundedLbl=1;backgroundOutline=1;size=15;" parent="1" vertex="1">
          <mxGeometry x="1330" y="330" width="60" height="80" as="geometry" />
        </mxCell>
        <mxCell id="c2e_7k0j0S8OTlrdy8KA-111" value="INSERT des transactions" style="text;html=1;align=center;verticalAlign=middle;resizable=0;points=[];autosize=1;strokeColor=none;fillColor=none;" parent="1" vertex="1">
          <mxGeometry x="1100" y="173" width="160" height="30" as="geometry" />
        </mxCell>
        <mxCell id="c2e_7k0j0S8OTlrdy8KA-112" value="Etat INSERTED" style="text;html=1;align=center;verticalAlign=middle;resizable=0;points=[];autosize=1;strokeColor=none;fillColor=none;" parent="1" vertex="1">
          <mxGeometry x="1125" y="208" width="110" height="30" as="geometry" />
        </mxCell>
        <mxCell id="c2e_7k0j0S8OTlrdy8KA-114" style="edgeStyle=orthogonalEdgeStyle;rounded=0;orthogonalLoop=1;jettySize=auto;html=1;exitX=1;exitY=0.5;exitDx=0;exitDy=0;entryX=0.145;entryY=1;entryDx=0;entryDy=-4.35;entryPerimeter=0;" parent="1" source="c2e_7k0j0S8OTlrdy8KA-107" target="c2e_7k0j0S8OTlrdy8KA-109" edge="1">
          <mxGeometry relative="1" as="geometry" />
        </mxCell>
        <mxCell id="c2e_7k0j0S8OTlrdy8KA-115" value="Etat CATEGORIZED" style="text;html=1;align=center;verticalAlign=middle;resizable=0;points=[];autosize=1;strokeColor=none;fillColor=none;" parent="1" vertex="1">
          <mxGeometry x="1120" y="600" width="130" height="30" as="geometry" />
        </mxCell>
        <mxCell id="c2e_7k0j0S8OTlrdy8KA-120" style="edgeStyle=orthogonalEdgeStyle;rounded=0;orthogonalLoop=1;jettySize=auto;html=1;entryX=0.5;entryY=0;entryDx=0;entryDy=0;" parent="1" source="c2e_7k0j0S8OTlrdy8KA-116" target="c2e_7k0j0S8OTlrdy8KA-119" edge="1">
          <mxGeometry relative="1" as="geometry" />
        </mxCell>
        <mxCell id="c2e_7k0j0S8OTlrdy8KA-116" value="Etats" style="text;html=1;align=center;verticalAlign=middle;resizable=0;points=[];autosize=1;strokeColor=none;fillColor=none;fontStyle=1" parent="1" vertex="1">
          <mxGeometry x="1520" y="160" width="50" height="30" as="geometry" />
        </mxCell>
        <mxCell id="c2e_7k0j0S8OTlrdy8KA-123" style="edgeStyle=orthogonalEdgeStyle;rounded=0;orthogonalLoop=1;jettySize=auto;html=1;exitX=0.5;exitY=1;exitDx=0;exitDy=0;entryX=0.5;entryY=0;entryDx=0;entryDy=0;" parent="1" source="c2e_7k0j0S8OTlrdy8KA-119" target="c2e_7k0j0S8OTlrdy8KA-122" edge="1">
          <mxGeometry relative="1" as="geometry" />
        </mxCell>
        <mxCell id="c2e_7k0j0S8OTlrdy8KA-119" value="INSERTED" style="rounded=1;whiteSpace=wrap;html=1;" parent="1" vertex="1">
          <mxGeometry x="1495" y="213" width="100" height="25" as="geometry" />
        </mxCell>
        <mxCell id="c2e_7k0j0S8OTlrdy8KA-125" style="edgeStyle=orthogonalEdgeStyle;rounded=0;orthogonalLoop=1;jettySize=auto;html=1;exitX=0.5;exitY=1;exitDx=0;exitDy=0;entryX=0.5;entryY=0;entryDx=0;entryDy=0;" parent="1" source="c2e_7k0j0S8OTlrdy8KA-122" target="c2e_7k0j0S8OTlrdy8KA-124" edge="1">
          <mxGeometry relative="1" as="geometry" />
        </mxCell>
        <mxCell id="c2e_7k0j0S8OTlrdy8KA-122" value="CATEGORIZED" style="rounded=1;whiteSpace=wrap;html=1;" parent="1" vertex="1">
          <mxGeometry x="1495" y="267" width="100" height="25" as="geometry" />
        </mxCell>
        <mxCell id="c2e_7k0j0S8OTlrdy8KA-126" style="edgeStyle=orthogonalEdgeStyle;rounded=0;orthogonalLoop=1;jettySize=auto;html=1;exitX=1;exitY=0.5;exitDx=0;exitDy=0;entryX=1;entryY=0.75;entryDx=0;entryDy=0;" parent="1" source="c2e_7k0j0S8OTlrdy8KA-124" target="c2e_7k0j0S8OTlrdy8KA-122" edge="1">
          <mxGeometry relative="1" as="geometry" />
        </mxCell>
        <mxCell id="c2e_7k0j0S8OTlrdy8KA-133" style="edgeStyle=orthogonalEdgeStyle;rounded=0;orthogonalLoop=1;jettySize=auto;html=1;exitX=0.5;exitY=1;exitDx=0;exitDy=0;entryX=0.5;entryY=0;entryDx=0;entryDy=0;" parent="1" source="c2e_7k0j0S8OTlrdy8KA-124" target="c2e_7k0j0S8OTlrdy8KA-132" edge="1">
          <mxGeometry relative="1" as="geometry" />
        </mxCell>
        <mxCell id="c2e_7k0j0S8OTlrdy8KA-124" value="CONFIRMED" style="rounded=1;whiteSpace=wrap;html=1;" parent="1" vertex="1">
          <mxGeometry x="1495" y="320" width="100" height="25" as="geometry" />
        </mxCell>
        <mxCell id="c2e_7k0j0S8OTlrdy8KA-128" value="Events" style="text;html=1;align=center;verticalAlign=middle;resizable=0;points=[];autosize=1;strokeColor=none;fillColor=none;fontStyle=1" parent="1" vertex="1">
          <mxGeometry x="1790" y="160" width="60" height="30" as="geometry" />
        </mxCell>
        <mxCell id="c2e_7k0j0S8OTlrdy8KA-131" value="categorization_updated" style="text;html=1;align=left;verticalAlign=middle;resizable=0;points=[];autosize=1;strokeColor=none;fillColor=none;" parent="1" vertex="1">
          <mxGeometry x="1745" y="264.5" width="150" height="30" as="geometry" />
        </mxCell>
        <mxCell id="c2e_7k0j0S8OTlrdy8KA-137" style="edgeStyle=orthogonalEdgeStyle;rounded=0;orthogonalLoop=1;jettySize=auto;html=1;exitX=0.5;exitY=1;exitDx=0;exitDy=0;entryX=0.5;entryY=1;entryDx=0;entryDy=0;" parent="1" source="c2e_7k0j0S8OTlrdy8KA-132" target="c2e_7k0j0S8OTlrdy8KA-136" edge="1">
          <mxGeometry relative="1" as="geometry" />
        </mxCell>
        <mxCell id="c2e_7k0j0S8OTlrdy8KA-140" style="edgeStyle=orthogonalEdgeStyle;rounded=0;orthogonalLoop=1;jettySize=auto;html=1;exitX=0.25;exitY=1;exitDx=0;exitDy=0;entryX=0.5;entryY=0;entryDx=0;entryDy=0;" parent="1" source="c2e_7k0j0S8OTlrdy8KA-132" target="c2e_7k0j0S8OTlrdy8KA-139" edge="1">
          <mxGeometry relative="1" as="geometry" />
        </mxCell>
        <mxCell id="c2e_7k0j0S8OTlrdy8KA-132" value="ANALYZED" style="rounded=1;whiteSpace=wrap;html=1;" parent="1" vertex="1">
          <mxGeometry x="1495" y="375" width="100" height="25" as="geometry" />
        </mxCell>
        <mxCell id="c2e_7k0j0S8OTlrdy8KA-142" style="edgeStyle=orthogonalEdgeStyle;rounded=0;orthogonalLoop=1;jettySize=auto;html=1;exitX=0.5;exitY=0;exitDx=0;exitDy=0;entryX=1;entryY=0.25;entryDx=0;entryDy=0;" parent="1" source="c2e_7k0j0S8OTlrdy8KA-136" target="c2e_7k0j0S8OTlrdy8KA-122" edge="1">
          <mxGeometry relative="1" as="geometry" />
        </mxCell>
        <mxCell id="c2e_7k0j0S8OTlrdy8KA-136" value="TO_REANALYZE" style="rounded=1;whiteSpace=wrap;html=1;" parent="1" vertex="1">
          <mxGeometry x="1630" y="375" width="100" height="25" as="geometry" />
        </mxCell>
        <mxCell id="c2e_7k0j0S8OTlrdy8KA-139" value="" style="ellipse;html=1;shape=endState;fillColor=#000000;strokeColor=#ff0000;" parent="1" vertex="1">
          <mxGeometry x="1500" y="430" width="30" height="30" as="geometry" />
        </mxCell>
        <mxCell id="c2e_7k0j0S8OTlrdy8KA-141" value="re_analyzed" style="text;html=1;align=left;verticalAlign=middle;resizable=0;points=[];autosize=1;strokeColor=none;fillColor=none;" parent="1" vertex="1">
          <mxGeometry x="1775" y="370" width="90" height="30" as="geometry" />
        </mxCell>
        <mxCell id="XrM_dHUcD2mpZNYUPlLd-12" style="edgeStyle=orthogonalEdgeStyle;rounded=0;orthogonalLoop=1;jettySize=auto;html=1;entryX=1;entryY=0.5;entryDx=0;entryDy=0;" parent="1" source="c2e_7k0j0S8OTlrdy8KA-143" target="XrM_dHUcD2mpZNYUPlLd-2" edge="1">
          <mxGeometry relative="1" as="geometry" />
        </mxCell>
        <mxCell id="c2e_7k0j0S8OTlrdy8KA-143" value="" style="sketch=0;outlineConnect=0;fontColor=#232F3E;gradientColor=none;fillColor=#232F3D;strokeColor=none;dashed=0;verticalLabelPosition=bottom;verticalAlign=top;align=center;html=1;fontSize=12;fontStyle=0;aspect=fixed;pointerEvents=1;shape=mxgraph.aws4.gear;" parent="1" vertex="1">
          <mxGeometry x="370" y="740" width="60" height="60" as="geometry" />
        </mxCell>
        <mxCell id="c2e_7k0j0S8OTlrdy8KA-144" value="" style="rounded=1;whiteSpace=wrap;html=1;arcSize=7;" parent="1" vertex="1">
          <mxGeometry x="720" y="680" width="320" height="240" as="geometry" />
        </mxCell>
        <mxCell id="c2e_7k0j0S8OTlrdy8KA-147" value="Etape 3" style="text;html=1;align=center;verticalAlign=middle;resizable=0;points=[];autosize=1;strokeColor=none;fillColor=none;" parent="1" vertex="1">
          <mxGeometry x="1040" y="765" width="60" height="30" as="geometry" />
        </mxCell>
        <mxCell id="c2e_7k0j0S8OTlrdy8KA-148" value="Confirmer ses transactions pour éventuellement les mettre à jour" style="text;html=1;align=left;verticalAlign=middle;resizable=0;points=[];autosize=1;strokeColor=none;fillColor=none;" parent="1" vertex="1">
          <mxGeometry x="720" y="650" width="370" height="30" as="geometry" />
        </mxCell>
        <mxCell id="c2e_7k0j0S8OTlrdy8KA-149" value="Confirmer les opérations" style="rounded=1;whiteSpace=wrap;html=1;" parent="1" vertex="1">
          <mxGeometry x="797.5" y="890" width="165" height="20" as="geometry" />
        </mxCell>
        <mxCell id="c2e_7k0j0S8OTlrdy8KA-150" value="" style="rounded=0;whiteSpace=wrap;html=1;" parent="1" vertex="1">
          <mxGeometry x="759.5" y="770" width="248" height="20" as="geometry" />
        </mxCell>
        <mxCell id="c2e_7k0j0S8OTlrdy8KA-151" value="" style="rounded=0;whiteSpace=wrap;html=1;" parent="1" vertex="1">
          <mxGeometry x="759.5" y="790" width="248" height="20" as="geometry" />
        </mxCell>
        <mxCell id="c2e_7k0j0S8OTlrdy8KA-152" value="" style="rounded=0;whiteSpace=wrap;html=1;" parent="1" vertex="1">
          <mxGeometry x="759.5" y="810" width="248" height="20" as="geometry" />
        </mxCell>
        <mxCell id="c2e_7k0j0S8OTlrdy8KA-153" value="" style="rounded=0;whiteSpace=wrap;html=1;" parent="1" vertex="1">
          <mxGeometry x="759.5" y="830" width="248" height="20" as="geometry" />
        </mxCell>
        <mxCell id="c2e_7k0j0S8OTlrdy8KA-160" value="" style="whiteSpace=wrap;html=1;aspect=fixed;" parent="1" vertex="1">
          <mxGeometry x="742.5" y="835" width="10" height="10" as="geometry" />
        </mxCell>
        <mxCell id="c2e_7k0j0S8OTlrdy8KA-161" value="" style="whiteSpace=wrap;html=1;aspect=fixed;" parent="1" vertex="1">
          <mxGeometry x="742.5" y="815" width="10" height="10" as="geometry" />
        </mxCell>
        <mxCell id="c2e_7k0j0S8OTlrdy8KA-162" value="" style="whiteSpace=wrap;html=1;aspect=fixed;fontStyle=1" parent="1" vertex="1">
          <mxGeometry x="742.5" y="795" width="10" height="10" as="geometry" />
        </mxCell>
        <mxCell id="c2e_7k0j0S8OTlrdy8KA-163" value="" style="whiteSpace=wrap;html=1;aspect=fixed;fontStyle=1" parent="1" vertex="1">
          <mxGeometry x="742.5" y="775" width="10" height="10" as="geometry" />
        </mxCell>
        <mxCell id="c2e_7k0j0S8OTlrdy8KA-164" value="" style="whiteSpace=wrap;html=1;aspect=fixed;fontStyle=1" parent="1" vertex="1">
          <mxGeometry x="742.5" y="750" width="10" height="10" as="geometry" />
        </mxCell>
        <mxCell id="c2e_7k0j0S8OTlrdy8KA-165" value="check all" style="text;html=1;align=center;verticalAlign=middle;resizable=0;points=[];autosize=1;strokeColor=none;fillColor=none;" parent="1" vertex="1">
          <mxGeometry x="749.5" y="740" width="70" height="30" as="geometry" />
        </mxCell>
        <mxCell id="c2e_7k0j0S8OTlrdy8KA-166" value="Opérations à confirmer" style="text;html=1;align=left;verticalAlign=middle;resizable=0;points=[];autosize=1;strokeColor=none;fillColor=none;" parent="1" vertex="1">
          <mxGeometry x="742.5" y="690" width="150" height="30" as="geometry" />
        </mxCell>
        <mxCell id="c2e_7k0j0S8OTlrdy8KA-168" style="edgeStyle=orthogonalEdgeStyle;rounded=0;orthogonalLoop=1;jettySize=auto;html=1;exitX=1;exitY=0.75;exitDx=0;exitDy=0;entryX=0.5;entryY=1;entryDx=0;entryDy=0;entryPerimeter=0;" parent="1" source="c2e_7k0j0S8OTlrdy8KA-144" target="c2e_7k0j0S8OTlrdy8KA-109" edge="1">
          <mxGeometry relative="1" as="geometry" />
        </mxCell>
        <mxCell id="c2e_7k0j0S8OTlrdy8KA-169" value="Etat CONFIRMED" style="text;html=1;align=center;verticalAlign=middle;resizable=0;points=[];autosize=1;strokeColor=none;fillColor=none;" parent="1" vertex="1">
          <mxGeometry x="1125" y="860" width="120" height="30" as="geometry" />
        </mxCell>
        <mxCell id="XrM_dHUcD2mpZNYUPlLd-1" value="Batch d&#39;alimentation d&#39;ELK" style="text;html=1;align=center;verticalAlign=middle;resizable=0;points=[];autosize=1;strokeColor=none;fillColor=none;fontSize=16;" parent="1" vertex="1">
          <mxGeometry x="300" y="700" width="210" height="30" as="geometry" />
        </mxCell>
        <mxCell id="XrM_dHUcD2mpZNYUPlLd-2" value="" style="shape=image;verticalLabelPosition=bottom;labelBackgroundColor=default;verticalAlign=top;aspect=fixed;imageAspect=0;image=https://humancoders-formations.s3.amazonaws.com/uploads/course/logo/38/thumb_bigger_formation-elasticsearch.png;" parent="1" vertex="1">
          <mxGeometry x="148.2" y="745" width="45.24" height="50" as="geometry" />
        </mxCell>
        <mxCell id="XrM_dHUcD2mpZNYUPlLd-8" value="" style="shape=image;verticalLabelPosition=bottom;labelBackgroundColor=default;verticalAlign=top;aspect=fixed;imageAspect=0;image=https://goopensource.fr/wp-content/uploads/2021/07/kibana-1024x937.png;" parent="1" vertex="1">
          <mxGeometry x="121.63999999999999" y="805" width="98.36" height="90" as="geometry" />
        </mxCell>
        <mxCell id="XrM_dHUcD2mpZNYUPlLd-9" value="Etape 4" style="text;html=1;align=center;verticalAlign=middle;resizable=0;points=[];autosize=1;strokeColor=none;fillColor=none;" parent="1" vertex="1">
          <mxGeometry x="450" y="755" width="60" height="30" as="geometry" />
        </mxCell>
        <mxCell id="XrM_dHUcD2mpZNYUPlLd-10" style="edgeStyle=orthogonalEdgeStyle;rounded=0;orthogonalLoop=1;jettySize=auto;html=1;entryX=0.855;entryY=1;entryDx=0;entryDy=-4.35;entryPerimeter=0;" parent="1" source="c2e_7k0j0S8OTlrdy8KA-143" target="c2e_7k0j0S8OTlrdy8KA-109" edge="1">
          <mxGeometry relative="1" as="geometry">
            <Array as="points">
              <mxPoint x="400" y="1000" />
              <mxPoint x="1381" y="1000" />
            </Array>
          </mxGeometry>
        </mxCell>
        <mxCell id="XrM_dHUcD2mpZNYUPlLd-11" value="Etat ANALYZED" style="text;html=1;align=center;verticalAlign=middle;resizable=0;points=[];autosize=1;strokeColor=none;fillColor=none;" parent="1" vertex="1">
          <mxGeometry x="847" y="1000" width="110" height="30" as="geometry" />
        </mxCell>
        <mxCell id="7G1lb82Tn3G-8sLAzXpW-3" value="Commentaire de maxime:&lt;br&gt;Est-ce que l&#39;étape 1 ne pourrait pas être un batch ?" style="text;html=1;align=center;verticalAlign=middle;whiteSpace=wrap;rounded=0;" vertex="1" parent="1">
          <mxGeometry x="1065" y="20" width="225" height="50" as="geometry" />
        </mxCell>
      </root>
    </mxGraphModel>
  </diagram>
</mxfile>
